<svg width="24" height="24" viewBox="0 0 24 24" fill="none" xmlns="http://www.w3.org/2000/svg">
  <mask id="mask0_103_3214" style="mask-type:alpha" maskUnits="userSpaceOnUse" x="0" y="0"
    width="24" height="24">
    <rect width="24" height="24" fill="currentColor" />
  </mask>
  <g mask="url(#mask0_103_3214)">
    <path
      d="M12 11.9748C10.9 11.9748 9.98761 11.6124 9.26281 10.8876C8.53761 10.1624 8.17501 9.2498 8.17501 8.1498C8.17501 7.0498 8.53761 6.1374 9.26281 5.4126C9.98761 4.6874 10.9 4.3248 12 4.3248C13.1 4.3248 14.0124 4.6874 14.7372 5.4126C15.4624 6.1374 15.825 7.0498 15.825 8.1498C15.825 9.2498 15.4624 10.1624 14.7372 10.8876C14.0124 11.6124 13.1 11.9748 12 11.9748ZM4.00021 19.9998V17.5002C4.00021 16.8834 4.15421 16.3458 4.46221 15.8874C4.77061 15.429 5.17481 15.0832 5.67481 14.85C6.75841 14.35 7.82101 13.9708 8.86261 13.7124C9.90421 13.454 10.95 13.3248 12 13.3248C13.05 13.3248 14.0916 13.454 15.1248 13.7124C16.1584 13.9708 17.2252 14.35 18.3252 14.85C18.8252 15.1 19.2292 15.45 19.5372 15.9C19.8456 16.35 19.9998 16.8834 19.9998 17.5002V19.9998H4.00021ZM5.67481 18.3252H18.3252V17.5002C18.3252 17.2666 18.2584 17.0416 18.1248 16.8252C17.9916 16.6084 17.825 16.45 17.625 16.35C16.6082 15.85 15.654 15.5 14.7624 15.3C13.8708 15.1 12.95 15 12 15C11.05 15 10.125 15.1 9.22501 15.3C8.32501 15.5 7.37501 15.85 6.37501 16.35C6.15821 16.45 5.98741 16.6084 5.86261 16.8252C5.73741 17.0416 5.67481 17.2666 5.67481 17.5002V18.3252ZM12 10.3248C12.6168 10.3248 13.1334 10.1166 13.5498 9.7002C13.9666 9.2834 14.175 8.7666 14.175 8.1498C14.175 7.5334 13.9666 7.0168 13.5498 6.6C13.1334 6.1832 12.6168 5.9748 12 5.9748C11.3832 5.9748 10.8666 6.1832 10.4502 6.6C10.0334 7.0168 9.82501 7.5334 9.82501 8.1498C9.82501 8.7666 10.0334 9.2834 10.4502 9.7002C10.8666 10.1166 11.3832 10.3248 12 10.3248Z"
      fill="currentColor" />
  </g>
</svg>