<svg width="57" height="30" viewBox="0 0 57 30" fill="none" xmlns="http://www.w3.org/2000/svg">
  <g clip-path="url(#clip0_103_3188)">
    <path
      d="M19.7458 20.0557H16.1279V12.8083L13.7668 20.0557H11.2915L8.85418 12.8083V20.0557H5.94087V9.9215H11.0249L12.8719 15.3001L14.6237 9.9215H19.7458V20.0557Z"
      fill="black" />
    <path
      d="M21.9736 9.9215H26.8863C28.9808 9.9215 30.4089 10.3621 31.5704 11.3497C32.6748 12.2917 33.2651 13.5528 33.2651 14.9658C33.2651 17.9894 30.7707 20.0557 27.1338 20.0557H21.9736V9.9215ZM26.8863 17.7311C28.2382 17.7311 29.1902 16.5915 29.1902 14.981C29.1902 14.2517 28.9998 13.5832 28.619 13.0514C28.2191 12.4892 27.6479 12.2158 26.8863 12.2158H25.8771V17.7311H26.8863Z"
      fill="black" />
    <path
      d="M38.8632 20.0557H34.9217V9.9215H40.3294C42.2906 9.9215 43.376 10.1494 44.309 10.7268C45.1849 11.2889 45.7181 12.1854 45.7181 13.1578C45.7181 15.0874 43.8711 16.3788 41.072 16.3788H38.8632V20.0557ZM40.1199 14.2061C41.3005 14.2061 41.8336 13.8871 41.8336 13.2033C41.8336 12.5652 41.3005 12.2461 40.2342 12.2461H38.8251V14.2061H40.1199Z"
      fill="black" />
    <path d="M50.9163 20.0557H47.0129V9.9215H50.9163V20.0557Z" fill="black" />
    <path
      d="M0.952063 22.1676H0V6.72322L14.6618 0L29.4187 6.70043L28.5238 7.16384L14.6618 0.873639L0.952063 7.16384V22.1676Z"
      fill="black" />
    <path d="M2.37064 8.40213V7.52089L14.1572 2.10433L14.1477 3.02355L2.37064 8.40213Z" fill="black" />
    <path
      d="M56.0479 7.83236H57V23.2692L42.3382 30L27.5717 23.292L28.4762 22.8362L42.3382 29.1188L56.0479 22.8286V7.83236Z"
      fill="black" />
    <path d="M54.6294 21.5979V22.4715L42.8428 27.8881L42.8523 26.9689L54.6294 21.5979Z" fill="black" />
  </g>
  <defs>
    <clipPath id="clip0_103_3188">
      <rect width="57" height="30" fill="white" />
    </clipPath>
  </defs>
</svg>