<svg width="24" height="24" viewBox="0 0 24 24" fill="none" xmlns="http://www.w3.org/2000/svg">
  <mask id="mask0_103_3212" style="mask-type:alpha" maskUnits="userSpaceOnUse" x="0" y="0"
    width="24" height="24">
    <rect width="24" height="24" fill="currentColor" />
  </mask>
  <g mask="url(#mask0_103_3212)">
    <path
      d="M19.8 20.9748L13.3248 14.5002C12.8248 14.9166 12.2416 15.2456 11.5752 15.4872C10.9084 15.7292 10.2084 15.8502 9.4752 15.8502C7.6584 15.8502 6.125 15.2252 4.875 13.9752C3.625 12.7252 3 11.2084 3 9.42479C3 7.64159 3.625 6.12079 4.875 4.86239C6.125 3.60399 7.65 2.97479 9.45 2.97479C11.2332 2.97479 12.7498 3.60399 13.9998 4.86239C15.2498 6.12079 15.8748 7.64159 15.8748 9.42479C15.8748 10.1416 15.7582 10.8292 15.525 11.4876C15.2918 12.146 14.9502 12.7584 14.5002 13.3248L21 19.7748L19.8 20.9748ZM9.45 14.175C10.7668 14.175 11.8876 13.7124 12.8124 12.7872C13.7376 11.8624 14.2002 10.7416 14.2002 9.42479C14.2002 8.10839 13.7376 6.98339 12.8124 6.04979C11.8876 5.11659 10.7668 4.64999 9.45 4.64999C8.1168 4.64999 6.9876 5.11659 6.0624 6.04979C5.1376 6.98339 4.6752 8.10839 4.6752 9.42479C4.6752 10.7416 5.1376 11.8624 6.0624 12.7872C6.9876 13.7124 8.1168 14.175 9.45 14.175Z"
      fill="currentColor" />
  </g>
</svg>