<svg width="16" height="16" viewBox="0 0 16 16" fill="none" xmlns="http://www.w3.org/2000/svg">
  <mask id="mask0_103_5867" style="mask-type:alpha" maskUnits="userSpaceOnUse" x="0" y="0"
    width="16" height="16">
    <rect width="16" height="16" fill="currentColor" />
  </mask>
  <g mask="url(#mask0_103_5867)">
    <path
      d="M8.00005 13.3332C7.73338 13.3332 7.50285 13.236 7.30845 13.0416C7.11405 12.8472 7.01685 12.6167 7.01685 12.35C7.01685 12.0833 7.11405 11.8556 7.30845 11.6668C7.50285 11.4777 7.73338 11.3832 8.00005 11.3832C8.26671 11.3832 8.49725 11.4777 8.69165 11.6668C8.88605 11.8556 8.98325 12.0833 8.98325 12.35C8.98325 12.6279 8.88605 12.8612 8.69165 13.05C8.49725 13.2388 8.26671 13.3332 8.00005 13.3332ZM8.00005 8.98321C7.73338 8.98321 7.50285 8.88601 7.30845 8.69161C7.11405 8.49721 7.01685 8.26668 7.01685 8.00001C7.01685 7.73334 7.11405 7.50281 7.30845 7.30841C7.50285 7.11401 7.73338 7.01681 8.00005 7.01681C8.26671 7.01681 8.49725 7.11401 8.69165 7.30841C8.88605 7.50281 8.98325 7.73334 8.98325 8.00001C8.98325 8.26668 8.88605 8.49721 8.69165 8.69161C8.49725 8.88601 8.26671 8.98321 8.00005 8.98321ZM8.00005 4.61681C7.73338 4.61681 7.50285 4.52228 7.30845 4.33321C7.11405 4.14441 7.01685 3.91668 7.01685 3.65001C7.01685 3.37214 7.11405 3.13881 7.30845 2.95001C7.50285 2.76121 7.73338 2.66681 8.00005 2.66681C8.26671 2.66681 8.49725 2.76401 8.69165 2.95841C8.88605 3.15281 8.98325 3.38334 8.98325 3.65001C8.98325 3.91668 8.88605 4.14441 8.69165 4.33321C8.49725 4.52228 8.26671 4.61681 8.00005 4.61681Z"
      fill="currentColor" />
  </g>
</svg>